<svg width="1377" height="295" viewBox="0 0 1377 295" fill="none" xmlns="http://www.w3.org/2000/svg">
<g clip-path="url(#clip0_1292_443)">
<path d="M1079.69 82.6894H1056C1053.76 82.6894 1051.97 81.3485 1051.97 79.5606C1051.08 73.75 1048.4 68.3864 1043.48 63.9167C1018.44 39.3333 948.698 35.7576 924.109 36.6515L923.215 4.4697C933.945 4.4697 1026.49 3.12879 1065.83 41.1212C1077.01 51.4015 1082.82 64.3636 1084.16 78.6667C1084.16 80.9015 1082.37 82.6894 1079.69 82.6894Z" fill="#0099FF"/>
<path d="M1080.14 82.6894H1056.44C1053.76 82.6894 1051.97 80.9015 1051.97 78.6667C1053.31 64.3636 1059.57 51.4015 1070.3 41.1212C1109.65 2.68183 1202.19 4.46971 1212.92 4.46971L1212.03 36.2046C1187.44 35.7576 1118.14 39.3333 1092.66 63.9167C1087.74 68.3864 1085.06 73.303 1084.16 79.1136C1084.16 81.3485 1082.37 82.6894 1080.14 82.6894Z" fill="#0066CC"/>
<path d="M153.795 42.0152C160.054 50.9546 163.183 61.5328 163.183 73.75C163.183 85.8182 160.054 96.0985 153.795 103.697C150.218 107.869 145.002 111.742 138.147 115.318C148.579 119.192 156.477 125.301 161.842 133.644C167.207 141.987 169.89 151.97 169.89 163.591C169.89 175.659 166.76 186.833 160.948 196.22C156.775 202.775 151.857 208.288 146.194 212.758C139.637 217.525 131.739 220.952 122.499 223.038C113.558 224.826 103.871 225.72 93.4393 225.72H0V20.1136H100.145C125.48 20.7096 143.363 28.0101 153.795 42.0152ZM41.1312 55.8712V101.462H91.651C100.593 101.462 107.895 99.6742 113.558 96.0985C119.221 92.8207 122.052 86.8611 122.052 78.2197C122.052 68.6843 118.327 62.2778 110.875 59C104.616 56.9141 96.4198 55.8712 86.286 55.8712H41.1312ZM41.1312 135.432V189.962H91.651C100.593 189.962 107.597 188.77 112.664 186.386C121.605 181.917 126.076 173.424 126.076 160.909C126.076 150.182 121.754 142.881 113.111 139.008C108.044 136.624 101.04 135.432 92.098 135.432H41.1312Z" fill="#0099FF"/>
<path d="M270.036 70.1743C270.633 70.1743 271.825 70.3232 273.613 70.6212V111.295C270.931 110.997 268.695 110.848 266.907 110.848C264.821 110.551 263.181 110.402 261.989 110.402C245.894 110.402 235.015 115.616 229.352 126.045C226.372 132.005 224.882 141.093 224.882 153.311V225.72H184.645V73.75H222.646V100.121C228.905 89.9899 234.27 83.1364 238.741 79.5606C246.49 73.303 256.326 70.1743 268.248 70.1743C268.844 70.1743 269.44 70.1743 270.036 70.1743Z" fill="#0099FF"/>
<path d="M299.544 55.8712H295.967C285.684 55.8712 277.637 47.3788 277.637 37.5455C277.637 27.2651 285.684 19.2197 295.967 19.2197H299.544C309.826 19.2197 318.321 27.2651 318.321 37.5455C318.321 47.3788 309.826 55.8712 299.544 55.8712ZM277.637 73.75H318.321V225.72H277.637V73.75Z" fill="#0099FF"/>
<path d="M414.888 73.75C424.426 77.6238 432.175 84.9243 438.136 95.6515V73.75H477.479V218.121C477.479 237.49 474.051 252.24 467.196 262.371C455.87 279.356 433.963 287.849 401.476 287.849C382.102 287.849 366.156 283.975 353.638 276.227C341.418 268.778 334.563 257.455 333.073 242.258H376.886C377.781 247.025 379.569 250.303 382.251 252.091C386.424 255.965 393.726 257.902 404.158 257.902C418.465 257.902 428.002 253.134 432.771 243.598C436.05 237.341 437.689 226.912 437.689 212.311V202.924C433.814 209.182 429.791 213.949 425.618 217.227C417.57 223.485 407.139 226.614 394.322 226.614C374.651 226.614 359.003 219.76 347.379 206.053C335.457 192.346 329.496 173.722 329.496 150.182C329.496 126.939 335.308 108.614 346.485 93.4167C357.811 77.9217 373.906 70.1743 394.77 70.1743C402.519 70.1743 409.225 71.3662 414.888 73.75ZM428.3 182.811C434.857 175.659 438.136 164.485 438.136 149.288C438.136 134.687 435.007 123.662 428.747 116.212C422.786 108.763 414.59 105.038 404.158 105.038C390.15 105.038 380.612 111.593 375.545 124.705C372.565 131.558 371.074 140.051 371.074 150.182C371.074 159.121 372.565 167.018 375.545 173.871C381.208 186.684 390.895 193.091 404.605 193.091C414.143 193.091 422.041 189.664 428.3 182.811Z" fill="#0099FF"/>
<path d="M605.79 74.6439C613.241 77.9217 619.5 82.9874 624.567 89.8409C628.74 95.5025 631.273 101.313 632.167 107.273C633.061 113.232 633.509 122.917 633.509 136.326V225.72H592.825V133.197C592.825 125.152 591.334 118.596 588.354 113.53C584.777 106.379 577.922 102.803 567.788 102.803C557.505 102.803 549.458 106.379 544.093 113.53C538.43 120.384 535.599 130.366 535.599 143.477V225.72H495.809V21.0076H535.599V93.4167C541.56 84.7752 548.266 78.6667 555.717 75.0909C563.466 71.5151 571.514 69.7273 579.859 69.7273C589.397 69.7273 597.891 71.3662 605.343 74.6439H605.79Z" fill="#0099FF"/>
<path d="M635.746 103.697V75.0909H657.206V33.0757H696.996V75.0909H721.585V103.697H696.996V183.705C696.996 189.962 697.741 193.836 699.231 195.326C700.721 196.816 705.639 197.561 713.985 197.561C715.177 197.561 716.369 197.561 717.561 197.561C719.052 197.561 720.393 197.561 721.585 197.561V227.061L702.808 227.955C683.732 228.55 670.767 225.273 663.912 218.121C659.441 213.651 657.206 206.649 657.206 197.114V103.697H635.746Z" fill="#0099FF"/>
<path d="M887.896 42.0152C894.155 50.9546 897.285 61.5328 897.285 73.75C897.285 85.8182 894.155 96.0985 887.896 103.697C884.32 107.869 878.955 111.742 871.802 115.318C882.531 119.192 890.579 125.301 895.944 133.644C901.309 141.987 903.991 151.97 903.991 163.591C903.991 175.659 900.862 186.833 894.603 196.22C890.728 202.775 885.959 208.288 880.296 212.758C873.441 217.525 865.543 220.952 856.601 223.038C847.659 224.826 837.973 225.72 827.541 225.72H734.102V20.1136H834.247C859.581 20.7096 877.465 28.0101 887.896 42.0152ZM775.233 55.8712V101.462H825.753C834.694 101.462 841.996 99.6742 847.659 96.0985C853.322 92.8207 856.154 86.8611 856.154 78.2197C856.154 68.6843 852.428 62.2778 844.977 59C838.42 56.9141 830.223 55.8712 820.388 55.8712H775.233ZM775.233 135.432V189.962H825.753C834.694 189.962 841.549 188.77 846.318 186.386C855.558 181.917 860.178 173.424 860.178 160.909C860.178 150.182 855.707 142.881 846.765 139.008C841.996 136.624 835.141 135.432 826.2 135.432H775.233Z" fill="#0099FF"/>
<path d="M1047.5 206.947C1034.39 223.038 1014.72 231.083 988.489 231.083C962.26 231.083 942.589 223.038 929.474 206.947C916.658 191.154 910.25 172.232 910.25 150.182C910.25 127.833 916.509 109.061 929.474 92.9697C942.589 76.8788 962.26 68.8333 988.489 68.8333C1014.72 68.8333 1034.39 76.8788 1047.5 92.9697C1060.32 109.061 1066.73 128.131 1066.73 150.182C1066.73 172.083 1060.47 191.303 1047.5 206.947ZM1015.31 185.045C1021.57 177 1024.7 165.379 1024.7 150.182C1024.7 134.985 1021.57 123.215 1015.31 114.871C1009.05 106.528 1000.11 102.356 988.489 102.356C976.865 102.356 967.774 106.528 961.217 114.871C954.958 123.215 951.828 134.985 951.828 150.182C951.828 165.379 954.958 177 961.217 185.045C967.774 193.389 976.865 197.561 988.489 197.561C1000.11 197.561 1009.05 193.389 1015.31 185.045Z" fill="#0099FF"/>
<path d="M1205.77 206.947C1192.65 223.038 1172.98 231.083 1146.75 231.083C1120.53 231.083 1100.85 223.038 1087.74 206.947C1074.92 191.154 1068.52 172.232 1068.52 150.182C1068.52 127.833 1074.77 109.061 1087.74 92.9697C1100.85 76.8788 1120.53 68.8333 1146.75 68.8333C1172.98 68.8333 1192.65 76.8788 1205.77 92.9697C1218.58 109.061 1224.99 128.131 1224.99 150.182C1224.99 172.083 1218.73 191.303 1205.77 206.947ZM1173.58 185.045C1179.84 177 1182.97 165.379 1182.97 150.182C1182.97 134.985 1179.84 123.215 1173.58 114.871C1167.32 106.528 1158.38 102.356 1146.75 102.356C1134.83 102.356 1125.74 106.528 1119.48 114.871C1113.22 123.215 1110.09 134.985 1110.09 150.182C1110.09 165.379 1113.22 177 1119.48 185.045C1125.74 193.389 1134.83 197.561 1146.75 197.561C1158.38 197.561 1167.32 193.389 1173.58 185.045Z" fill="#0099FF"/>
<path d="M1235.28 21.0076H1274.62V131.856L1325.14 74.6439H1374.77L1319.78 130.962L1377 225.72H1328.27L1291.16 160.909L1274.62 177.894V225.72H1235.28V21.0076Z" fill="#0099FF"/>
</g>
<defs>
<clipPath id="clip0_1292_443">
<rect width="1377" height="295" fill="white"/>
</clipPath>
</defs>
</svg>
